<mxfile host="app.diagrams.net" modified="2021-07-01T12:33:06.163Z" agent="5.0 (Macintosh; Intel Mac OS X 10_15_7) AppleWebKit/537.36 (KHTML, like Gecko) Chrome/91.0.4472.114 Safari/537.36" etag="IPpihIP3MxZrgomWvNit" version="14.8.3" type="github">
  <diagram id="prtHgNgQTEPvFCAcTncT" name="Page-1">
    <mxGraphModel dx="946" dy="589" grid="1" gridSize="10" guides="1" tooltips="1" connect="1" arrows="1" fold="1" page="1" pageScale="1" pageWidth="827" pageHeight="1169" math="0" shadow="0">
      <root>
        <mxCell id="0" />
        <mxCell id="1" parent="0" />
        <mxCell id="YRQHoRgYK3mdWHycQkaK-1" value="" style="rounded=0;whiteSpace=wrap;html=1;fillColor=#dae8fc;strokeColor=#6c8ebf;" vertex="1" parent="1">
          <mxGeometry x="70" y="80" width="910" height="440" as="geometry" />
        </mxCell>
        <mxCell id="YRQHoRgYK3mdWHycQkaK-2" value="BUC" style="rounded=0;whiteSpace=wrap;html=1;align=left;direction=west;" vertex="1" parent="1">
          <mxGeometry x="150" y="170" width="250" height="230" as="geometry" />
        </mxCell>
        <mxCell id="YRQHoRgYK3mdWHycQkaK-3" value="" style="rounded=0;whiteSpace=wrap;html=1;" vertex="1" parent="1">
          <mxGeometry x="820" y="110" width="120" height="380" as="geometry" />
        </mxCell>
        <mxCell id="YRQHoRgYK3mdWHycQkaK-4" value="" style="rounded=0;whiteSpace=wrap;html=1;" vertex="1" parent="1">
          <mxGeometry x="490" y="170" width="250" height="230" as="geometry" />
        </mxCell>
      </root>
    </mxGraphModel>
  </diagram>
</mxfile>
